<svg id="Layer_1" data-name="Layer 1" xmlns="http://www.w3.org/2000/svg" viewBox="0 0 856.43 344.99"><defs><style>.cls-1,.cls-2{fill:#fff;}.cls-1{fill-rule:evenodd;}</style></defs><path class="cls-1" d="M185.14,337C99.47,337,55,318.11,28.33,273.59,13.32,248,8,202,8,172.49S13.32,97.05,28.33,71.4C55,26.88,99.47,8,185.14,8s130.18,18.88,156.8,63.4c15,25.65,20.32,71.58,20.32,101.09s-5.32,75.46-20.32,101.1C315.32,318.11,270.8,337,185.14,337Zm43.05-71.52c-9.69,0-23.73-4.36-30.49-19.85L155.12,142.54c-9.21-23.23,8.72-45,29.52-45,9.68,0,23.71,4.37,30.48,19.85l42.59,103.07C266.91,243.69,249,265.47,228.19,265.47Zm-85.66,0c-9.67,0-23.71-4.36-30.49-19.85L69.45,142.54c-9.19-23.23,8.71-45,29.52-45,9.69,0,23.72,4.37,30.5,19.85l42.58,103.07C181.25,243.69,163.35,265.47,142.53,265.47Zm139.13-77.88c-9.68,0-23.72-4.37-30.49-19.86l-10.39-25.19c-9.2-23.23,8.69-45,29.5-45,9.68,0,23.72,4.37,30.49,19.85l10.42,25.19C320.4,165.8,302.47,187.59,281.66,187.59Z"/><path class="cls-2" d="M426.68,113.76,440.2,61.33l13.52,52.43h17.22l21.74-78.87H475.2l-12.4,49.4a28.13,28.13,0,0,1-.74,3s0,.1,0,.16c0-.12-.06-.24-.08-.35a25.41,25.41,0,0,1-.75-3.11l-12.7-49.14H431.91L419.19,84.1a26.84,26.84,0,0,1-.75,3.12,2.5,2.5,0,0,1-.07.26,1.89,1.89,0,0,0-.05-.23,26.23,26.23,0,0,1-.75-3.1L405.2,34.89H387.71l21.75,78.87Z"/><path class="cls-2" d="M500.86,113.76l7.67-20.05h28.11l7.67,20.05h17.8L530.49,35.57l-.27-.68H515l-31.89,78.87Zm19.89-52.1,1.83-5.3,1,2.88,7.33,19.38H514.29Z"/><path class="cls-2" d="M629.33,57.67c0-14.05-10.87-22.78-28.37-22.78H567.11v78.87h16.62V82.64h10.58l17.75,31.12h19L612.27,80.81C623.59,76.31,629.33,68.53,629.33,57.67ZM612.7,58.76c0,6-4,9-11.74,9H583.73v-18H601C608.75,49.76,612.7,52.79,612.7,58.76Z"/><path class="cls-2" d="M656.19,62l.18.33a18.19,18.19,0,0,0,1.13,1.87l32,49.09.32.49h16.35V34.89H690V86.35L689.8,86a18.19,18.19,0,0,0-1.13-1.87L656.35,34.89H640v78.87h16.18Z"/><polygon class="cls-2" points="774.33 98.68 735.54 98.68 735.54 80.56 770.93 80.56 770.93 65.47 735.54 65.47 735.54 49.98 774 49.98 774 34.89 718.91 34.89 718.91 113.76 774.33 113.76 774.33 98.68"/><path class="cls-2" d="M829.61,80.81c11.32-4.5,17-12.28,17-23.14,0-14.05-10.87-22.78-28.36-22.78H784.45v78.87h16.62V82.64h10.57l17.76,31.12h19ZM830,58.76c0,6-3.95,9-11.74,9H801.07v-18H818.3C826.09,49.76,830,52.79,830,58.76Z"/><polygon class="cls-2" points="483.51 211.17 483.51 132.29 466.47 132.29 442.76 191.41 419.04 132.29 402 132.29 402 211.17 418.19 211.17 418.19 170.15 419.85 175.33 435.14 211.17 450.37 211.17 465.7 175.24 467.32 170.15 467.32 211.17 483.51 211.17"/><path class="cls-2" d="M495.38,132.29v48.76c0,19.23,12.77,31.65,32.53,31.65s32.53-12.42,32.53-31.65V132.29H543.82v47.33c0,11.15-5.8,17.55-15.91,17.55S512,190.77,512,179.62V132.29Z"/><path class="cls-2" d="M601.23,197.83c-10.34,0-16.17-5.53-18.34-17.42l-.26-1.42-14.74,7.5.18.81c3.4,16.14,15.53,25.4,33.27,25.4,19.49,0,29.68-12.39,29.68-24.64,0-13.27-8-20.86-25.95-24.62h0c-12.7-2.61-17.66-5.66-17.66-10.89s6.33-6.92,11.75-6.92c8.44,0,14.18,4.32,17.06,12.86l.42,1.24L630,152.05l-.31-.85c-4.93-13.57-15.08-20.44-30.16-20.44-16.77,0-28,8.89-28,22.12,0,12.31,9.07,21.08,24.86,24.07,13.2,2.69,18.1,5.85,18.1,11.66C614.4,194.21,609.23,197.83,601.23,197.83Z"/><rect class="cls-2" x="640.14" y="132.29" width="16.62" height="78.87"/><path class="cls-2" d="M740.07,191.62l.57-.87-13.13-9.43-.58,1.08c-5.27,9.8-12.77,14.77-22.28,14.77-13.67,0-23.58-10.7-23.58-25.44s9.91-25.44,23.58-25.44c9.8,0,16.6,4.61,21.38,14.51l.56,1.16,13.48-9.71-.36-.8c-5.81-13-18.75-20.69-34.62-20.69-23.68,0-40.87,17.23-40.87,41,0,24.12,16.58,41,40.32,41C722.5,212.7,731.17,205,740.07,191.62Z"/><path class="cls-2" d="M429.48,279.41H454c-1.13,5.38-5.19,15.16-19.75,15.16-13.37,0-22.7-10.46-22.7-25.44s10-26.1,23.8-26.1c9.89,0,17.48,4.61,21.94,13.33l.58,1.12,12.61-9.17-.42-.82c-6.17-12.1-19.06-19.33-34.5-19.33-23.29,0-40.86,17.61-40.86,41s16.82,41,39.11,41c9.77,0,17.65-3.68,22.94-10.67l2.67,9.14h11.42V265.42H429.48Z"/><path class="cls-2" d="M544,252.47c0-14.05-10.87-22.78-28.37-22.78H481.75v78.88h16.63V277.44H509l17.75,31.13h19l-18.82-33C538.23,271.11,544,263.34,544,252.47Zm-16.62,1.1c0,6-4,9-11.75,9H498.38v-18H515.6C523.39,244.56,527.35,247.59,527.35,253.57Z"/><path class="cls-2" d="M589.89,228.16c-23.11,0-40.53,17.61-40.53,41s17.42,41,40.53,41,40.53-17.61,40.53-41S613,228.16,589.89,228.16Zm23.69,41c0,15.22-9.52,25.44-23.69,25.44s-23.69-10.22-23.69-25.44,9.52-25.44,23.69-25.44S613.58,253.91,613.58,269.13Z"/><path class="cls-2" d="M687.56,277c0,11.16-5.8,17.55-15.91,17.55s-15.91-6.39-15.91-17.55V229.69H639.12v48.76c0,19.22,12.76,31.65,32.53,31.65s32.53-12.43,32.53-31.65V229.69H687.56Z"/><path class="cls-2" d="M752,229.69H716.05v78.88h16.62V281.83H752c18.38,0,29.79-10,29.79-26.07S770.36,229.69,752,229.69Zm13.17,26.07c0,7.18-4.71,11-13.61,11H732.67v-22h18.87C760.44,244.78,765.15,248.58,765.15,255.76Z"/></svg>